<svg width="190" height="48" viewBox="0 0 190 48" xmlns="http://www.w3.org/2000/svg"><title>Logo-blue-pewter</title><g fill="none" fill-rule="evenodd"><path d="M19.475 30.473c-2.113-2.192-4.52-3.31-7.16-3.31-2.25 0-4.18.784-5.73 2.312-1.545 1.54-2.328 3.457-2.328 5.706 0 1.563.344 2.98 1.03 4.19.69 1.227 1.672 2.188 2.922 2.88 1.243.685 2.657 1.04 4.187 1.04 1.304 0 2.51-.245 3.592-.725 1.055-.478 2.232-1.355 3.48-2.58.13.13 2.75 2.854 2.89 2.985-1.685 1.626-3.3 2.766-4.803 3.398-1.525.644-3.29.978-5.235.978-3.595 0-6.583-1.16-8.87-3.422C1.155 41.656 0 38.718 0 35.168c0-2.293.525-4.357 1.565-6.138 1.047-1.775 2.563-3.234 4.503-4.323a12.876 12.876 0 0 1 6.318-1.628c1.908 0 3.773.404 5.54 1.205a13.32 13.32 0 0 1 4.523 3.375l-2.975 2.813m6.705 1.12c-1.953 1.778-2.944 4.016-2.944 6.665 0 2.47.875 4.603 2.605 6.332 1.734 1.72 3.845 2.61 6.286 2.61 1.665 0 3.204-.403 4.585-1.19a8.694 8.694 0 0 0 3.285-3.273 9.006 9.006 0 0 0 1.198-4.51A8.78 8.78 0 0 0 40 33.765a8.694 8.694 0 0 0-3.33-3.274 9.15 9.15 0 0 0-4.556-1.2c-2.227 0-4.225.78-5.933 2.304m2.54 10.364c-.897-.952-1.356-2.195-1.356-3.713 0-1.48.466-2.71 1.373-3.657.914-.957 2.074-1.438 3.446-1.438 1.398 0 2.572.476 3.474 1.42.902.937 1.355 2.174 1.355 3.675 0 1.494-.46 2.736-1.388 3.695-.908.96-2.073 1.44-3.46 1.44-1.38 0-2.54-.48-3.445-1.422m15.053-18.456h4.146V46.76h-4.147zm9.68 8.092c-1.955 1.777-2.942 4.015-2.942 6.664 0 2.47.877 4.603 2.605 6.332 1.73 1.72 3.844 2.61 6.29 2.61 1.66 0 3.2-.403 4.582-1.19a8.726 8.726 0 0 0 3.28-3.273 8.983 8.983 0 0 0 1.2-4.51c0-1.586-.4-3.09-1.192-4.462a8.76 8.76 0 0 0-3.328-3.274 9.166 9.166 0 0 0-4.56-1.2c-2.22 0-4.22.78-5.934 2.304M56 41.958c-.907-.952-1.36-2.195-1.36-3.713 0-1.48.46-2.71 1.374-3.657.915-.957 2.072-1.438 3.442-1.438 1.403 0 2.57.476 3.473 1.42.9.937 1.36 2.174 1.36 3.675 0 1.494-.465 2.736-1.385 3.695-.916.96-2.085 1.44-3.466 1.44-1.383 0-2.54-.48-3.44-1.422M78.32 29.77c-.785.31-1.675.886-2.653 1.7l-.166.143V29.73h-4.15v17.03h4.15v-6.815c0-1.82.066-2.968.196-3.522.247-1.048.698-1.882 1.338-2.476.65-.597 1.438-.898 2.343-.898.695 0 1.29.18 1.77.54.47.374.81.91 1.004 1.6.19.693.283 2.037.283 4.128v7.442h4.087V35.47c0-1.944-.495-3.44-1.475-4.42-1.176-1.176-2.617-1.76-4.3-1.76a6.4 6.4 0 0 0-2.424.48m12.135-.04h4.15v17.03h-4.15zm9.835 2.066c-1.554 1.678-2.342 3.853-2.342 6.484 0 2.517.815 4.657 2.41 6.353 1.618 1.7 3.54 2.567 5.74 2.567.97 0 1.892-.174 2.732-.53.835-.34 1.68-.92 2.523-1.707l.166-.168v1.965h4.15V29.73h-4.15v2.05l-.172-.185c-.765-.76-1.604-1.345-2.5-1.73a7.23 7.23 0 0 0-2.88-.574c-2.222 0-4.128.846-5.678 2.506m1.787 6.43c0-1.492.453-2.737 1.36-3.697.9-.965 2.05-1.443 3.414-1.443 1.397 0 2.567.465 3.48 1.42.916.94 1.37 2.186 1.37 3.704 0 1.553-.454 2.824-1.37 3.782-.913.962-2.076 1.446-3.46 1.446-1.35 0-2.498-.498-3.415-1.47-.915-.974-1.378-2.233-1.378-3.74m17.74-15.148h4.147v23.68h-4.146zm15.536-.012V46.76H146.1v-4.035h-6.49V23.068h-4.257m25.137.376c-.655.535-1.052 1.273-1.163 2.19-.056.408-.1 1.75-.11 3.99v.108h-1.548v3.45h1.548V46.76h4.154V33.18h2.746v-3.448h-2.746l.012-2.26c0-.533.094-.88.283-1.057.265-.234.663-.353 1.19-.353.382 0 .87.095 1.445.25v-3.084c-1.088-.385-2.09-.59-2.956-.59-1.226 0-2.19.27-2.856.806m9.21 8.416c-1.68 1.705-2.534 3.886-2.534 6.48 0 2.52.853 4.652 2.54 6.332 1.68 1.675 3.89 2.528 6.58 2.528 1.726 0 3.235-.312 4.49-.92 1.226-.592 2.28-1.517 3.164-2.742-.224-.1-3.374-1.568-3.486-1.62-1.175 1.116-2.582 1.685-4.204 1.685-1.38 0-2.538-.37-3.43-1.113-.882-.736-1.446-1.745-1.647-2.992l-.02-.12h13.992c.01-.155.02-.723.02-.723 0-2.8-.85-5.09-2.54-6.795-1.68-1.706-3.89-2.568-6.59-2.568-2.523 0-4.66.862-6.335 2.568m6.544.88c1.136 0 2.152.31 3.014.917.863.615 1.446 1.426 1.74 2.395l.04.136h-9.743l.07-.146c.492-1.072 1.043-1.84 1.622-2.277.932-.678 2.03-1.026 3.257-1.026" fill="#265B80"/><path d="M148.902 17.768c0 2.2 1.295 3.996 2.877 3.996 1.582 0 2.867-1.795 2.867-3.996 0-2.208-1.285-3.998-2.868-3.998s-2.878 1.79-2.878 3.998m-21.557-6.14c0 3.657 1.045 6.75 2.268 6.75 1.237 0 2.273-3.093 2.273-6.75 0-3.66-1.036-6.75-2.273-6.75-1.223 0-2.268 3.09-2.268 6.75M89.17 19.262c0 1.978 1.617 3.586 3.606 3.586 1.994 0 3.61-1.608 3.61-3.586 0-1.986-1.616-3.588-3.61-3.588-1.99 0-3.607 1.602-3.607 3.588m17.027-.118c1.734 0 3.153-2.053 3.153-4.57 0-2.52-1.42-4.576-3.153-4.576-1.74 0-3.155 2.055-3.155 4.577 0 2.516 1.416 4.57 3.155 4.57m32.16-13.602c0 2.796 1.207 5.074 2.687 5.074 1.477 0 2.685-2.278 2.685-5.074 0-2.805-1.15-5.09-2.628-5.09-1.484 0-2.744 2.285-2.744 5.09m-22.456 2.503c0 2.98 1.05 5.405 2.35 5.405 1.303 0 2.362-2.423 2.362-5.404 0-2.98-1.06-5.4-2.36-5.4-1.3 0-2.35 2.42-2.35 5.4" fill="#5B7183"/><path fill="#265B80" d="M149.704 29.73h4.152v17.03h-4.152z"/><path d="M187.02 44.71h.262c.274 0 .533-.087.533-.322 0-.197-.136-.346-.496-.346-.15 0-.236.013-.3.026v.64zm0 1.16h-.384v-2.062c.21-.036.435-.06.72-.06.348 0 .522.06.647.16a.532.532 0 0 1 .21.444c0 .245-.187.407-.398.48v.025c.176.074.274.234.337.506.06.308.11.432.16.505h-.397c-.063-.073-.113-.258-.173-.53-.05-.234-.186-.334-.473-.334h-.25v.864zm-1.226-1.087c0 .912.68 1.63 1.6 1.63.88.012 1.553-.718 1.553-1.618 0-.9-.672-1.628-1.577-1.628-.895 0-1.576.727-1.576 1.616zm3.588 0c0 1.122-.87 1.986-2 1.986s-2.023-.865-2.023-1.987c0-1.1.89-1.963 2.035-1.963 1.116 0 1.987.864 1.987 1.963z" fill="#5B7183"/></g></svg>